<?xml version="1.0" standalone="no"?>
<!DOCTYPE svg PUBLIC "-//W3C//DTD SVG 20010904//EN"
 "http://www.w3.org/TR/2001/REC-SVG-20010904/DTD/svg10.dtd">
<svg version="1.0" xmlns="http://www.w3.org/2000/svg"
 width="300.000000pt" height="300.000000pt" viewBox="0 0 300.000000 300.000000"
 preserveAspectRatio="xMidYMid meet">
<metadata>
Created by potrace 1.10, written by Peter Selinger 2001-2011
</metadata>
<g transform="translate(0.000000,300.000000) scale(0.100000,-0.100000)"
fill="#000000" stroke="none">
<path d="M1455 2691 c3 -6 -11 -13 -32 -16 -21 -4 -52 -11 -70 -16 -17 -6 -44
-12 -59 -15 -39 -7 -115 -54 -107 -66 3 -6 2 -8 -4 -5 -32 20 -183 -80 -183
-122 0 -9 -9 -34 -20 -56 -22 -44 -25 -59 -9 -49 8 4 8 0 0 -15 -13 -24 -23
-28 -15 -6 4 8 3 15 0 15 -12 0 -86 -159 -84 -179 2 -21 -3 -43 -9 -38 -7 8
-43 -21 -43 -36 0 -5 9 1 20 14 18 23 19 23 19 4 1 -11 -8 -31 -19 -45 -11
-14 -20 -30 -20 -36 0 -6 -11 -24 -24 -39 -16 -19 -22 -34 -17 -44 9 -21 7
-52 -7 -77 -17 -31 -28 -129 -13 -120 24 15 30 -6 10 -40 -10 -19 -17 -39 -15
-43 8 -12 -13 -81 -24 -81 -6 0 -6 -9 -1 -22 5 -13 14 -22 20 -21 6 2 11 -2
11 -8 0 -6 -6 -9 -12 -7 -12 4 -38 -33 -38 -54 0 -5 10 -24 22 -41 13 -18 22
-33 20 -34 -11 -12 4 -20 33 -19 19 0 34 5 33 11 -2 5 -7 10 -13 11 -5 0 -16
2 -23 2 -7 1 -10 7 -7 12 3 6 1 10 -6 10 -7 0 -5 8 6 20 18 20 18 21 -1 14
-10 -4 -16 -4 -12 1 4 4 3 14 -3 21 -7 9 -4 16 12 28 12 8 27 12 33 9 6 -4 7
-2 3 3 -5 5 -14 9 -20 9 -15 0 -19 52 -5 61 6 4 14 0 19 -7 5 -8 9 -9 9 -4 0
6 -5 16 -11 22 -8 8 -8 17 1 33 6 12 9 28 6 36 -3 8 -1 14 4 14 5 0 8 15 7 34
-1 19 -6 34 -11 33 -5 -1 -10 13 -12 30 -1 21 2 30 9 26 6 -3 7 -1 3 5 -4 6 5
31 20 54 16 24 20 37 11 29 -10 -7 -18 -11 -18 -7 -5 23 -4 32 4 43 5 7 11 29
13 49 2 20 10 44 17 53 26 29 58 104 48 114 -6 6 -2 18 11 31 11 11 26 35 34
51 7 17 13 24 14 16 0 -8 3 -11 6 -8 4 4 1 14 -7 24 -9 11 -10 14 -1 9 7 -4
14 0 18 11 3 10 10 27 15 38 6 11 11 30 12 42 0 12 11 26 23 31 12 6 24 20 27
31 3 14 1 19 -6 15 -23 -13 8 14 82 70 40 31 81 56 91 56 10 0 20 5 22 12 2 6
15 13 29 15 13 2 29 10 35 18 12 16 29 21 20 6 -4 -5 3 -7 14 -4 11 3 18 9 15
13 -3 4 7 10 22 13 18 3 31 0 39 -11 11 -15 12 -15 11 3 -2 21 7 23 56 10 22
-6 26 -4 21 9 -5 14 -2 14 26 5 23 -9 28 -14 18 -20 -10 -7 -8 -9 7 -9 17 0
17 -2 5 -10 -13 -8 -13 -10 2 -10 9 0 19 6 21 13 4 10 6 10 6 0 1 -7 8 -13 16
-13 9 0 12 -6 9 -17 -5 -17 -5 -17 9 0 13 16 11 21 -20 52 -19 19 -43 35 -53
35 -10 0 -34 7 -53 15 -42 17 -50 19 -42 6z m-361 -173 c-4 -7 -21 -27 -38
-45 -17 -18 -34 -43 -38 -55 -6 -22 -6 -22 -7 3 -1 35 54 108 82 109 5 0 5 -6
1 -12z"/>
<path d="M1770 2659 c-25 -5 -50 -10 -57 -11 -7 -1 -10 -5 -7 -9 2 -4 -3 -12
-13 -18 -10 -5 -26 -24 -36 -43 -13 -23 -14 -27 -3 -14 9 11 16 16 16 11 0 -5
12 3 28 17 27 26 122 55 141 43 6 -3 26 -7 44 -9 38 -4 157 -54 157 -67 0 -4
10 -11 23 -15 43 -13 156 -115 215 -194 14 -19 31 -39 36 -45 18 -16 66 -90
66 -101 0 -5 11 -22 25 -38 14 -16 25 -26 25 -22 0 16 -94 168 -106 173 -8 3
-12 8 -9 12 2 4 -18 29 -45 56 -27 27 -47 52 -44 57 3 5 2 8 -3 6 -4 -1 -25
15 -47 35 -78 77 -202 149 -283 167 -26 6 -55 12 -63 14 -8 2 -35 -1 -60 -5z"/>
<path d="M1806 2591 c-4 -6 20 -18 57 -30 35 -10 80 -29 100 -40 21 -12 47
-21 58 -21 11 0 17 -5 14 -10 -4 -6 -2 -9 3 -8 12 4 112 -71 112 -83 0 -5 7
-9 15 -9 14 0 60 -53 60 -70 0 -5 4 -12 9 -17 5 -5 6 -2 2 7 -4 8 1 4 12 -10
11 -13 19 -27 16 -31 -2 -4 3 -12 11 -19 8 -7 15 -19 15 -26 0 -8 5 -14 11
-14 5 0 8 -4 4 -9 -3 -5 -1 -13 5 -16 6 -4 8 -15 5 -26 -4 -11 4 -43 19 -75
14 -31 26 -60 26 -65 0 -5 11 -27 25 -49 13 -21 21 -42 16 -45 -5 -3 -7 -15
-3 -27 3 -14 2 -19 -6 -14 -7 4 -12 2 -12 -4 0 -6 -4 -8 -10 -5 -13 8 -13 4 5
-39 9 -20 17 -56 18 -80 2 -41 1 -44 -17 -34 -17 9 -17 7 3 -21 16 -23 18 -29
7 -25 -9 3 -16 1 -16 -5 0 -6 5 -11 10 -11 6 0 10 -5 10 -11 0 -6 -6 -9 -13
-6 -13 5 -17 -37 -4 -50 4 -3 7 -13 7 -22 -1 -13 -3 -12 -15 3 -8 11 -15 15
-15 9 0 -6 7 -16 16 -24 9 -7 14 -22 11 -35 -2 -11 1 -21 7 -21 38 1 46 -4 44
-28 -2 -25 -28 -45 -28 -21 0 7 -6 19 -13 25 -11 8 -14 7 -14 -7 0 -9 5 -20
11 -24 7 -5 7 -8 1 -8 -6 0 -10 -20 -10 -45 1 -30 -3 -44 -10 -41 -7 2 -12 -2
-12 -10 0 -7 4 -11 8 -8 4 2 9 -1 11 -6 2 -6 13 -12 24 -12 15 -2 22 -9 22
-24 0 -14 -5 -21 -14 -17 -7 2 -10 11 -7 18 4 11 -1 12 -24 6 -15 -4 -35 -6
-43 -3 -11 4 -10 1 3 -12 9 -10 21 -14 27 -11 14 8 13 -8 -1 -22 -12 -12 -42
-6 -34 7 3 4 -4 10 -15 13 -15 4 -20 0 -20 -15 0 -10 -5 -28 -10 -39 -20 -37
17 -34 62 6 33 27 48 35 67 30 21 -5 23 -3 19 19 -3 14 -1 27 4 28 5 2 0 14
-11 26 -20 23 -20 24 1 70 25 60 30 108 12 127 -8 7 -14 27 -14 44 0 17 -5 31
-11 31 -5 0 -7 -4 -4 -10 3 -5 1 -10 -4 -10 -6 0 -11 6 -11 13 1 19 26 47 36
39 4 -4 2 1 -5 11 -10 12 -11 20 -2 30 18 22 19 60 4 90 -13 27 -13 29 6 34
27 7 26 11 -4 39 -26 24 -33 44 -14 44 5 0 7 5 4 10 -11 18 7 10 26 -12 l19
-21 0 37 c0 23 -5 39 -15 42 -8 4 -15 12 -15 20 0 8 -4 14 -9 14 -5 0 -13 14
-16 31 -5 20 -10 27 -15 20 -8 -14 -73 115 -67 133 3 6 10 -2 16 -17 6 -16 15
-25 21 -22 6 4 7 -1 3 -11 -4 -11 -2 -15 4 -11 14 9 31 -13 53 -70 13 -33 19
-41 20 -25 0 27 -8 44 -66 134 -24 37 -49 79 -56 95 -35 78 -148 209 -215 248
-18 11 -33 22 -33 26 0 3 -39 24 -87 46 -93 43 -167 61 -177 44z"/>
<path d="M2290 2385 c24 -25 49 -45 54 -45 6 0 -10 20 -34 45 -24 25 -49 45
-54 45 -6 0 10 -20 34 -45z"/>
<path d="M1239 2360 c-41 -22 -111 -122 -155 -222 -10 -21 -20 -38 -24 -38 -4
0 -15 -30 -25 -67 -14 -51 -29 -78 -64 -117 -26 -28 -51 -53 -56 -55 -45 -17
-50 -21 -21 -18 17 1 45 17 70 41 22 21 49 46 60 55 25 22 58 98 59 138 0 17
4 30 8 28 3 -3 12 16 19 40 7 25 17 48 21 51 5 3 9 13 9 22 0 10 8 25 18 33
29 26 62 69 62 80 0 5 4 8 9 5 4 -3 19 6 31 19 28 30 26 30 -21 5z"/>
<path d="M1865 2200 c-3 -5 -1 -19 5 -31 7 -12 21 -53 31 -91 22 -79 50 -138
74 -158 10 -8 7 1 -8 23 -25 36 -68 161 -71 204 0 11 -5 19 -10 15 -5 -3 -6 2
-3 12 5 11 3 15 -5 10 -8 -5 -9 -2 -5 9 7 18 2 23 -8 7z"/>
<path d="M1956 2025 c4 -8 9 -15 13 -15 4 0 15 -22 25 -49 10 -28 23 -55 30
-61 8 -5 2 18 -12 53 -13 35 -33 69 -43 75 -15 10 -17 9 -13 -3z"/>
<path d="M2021 1999 c11 -23 22 -50 24 -60 2 -10 8 -27 14 -36 9 -16 10 -16
11 -1 0 9 -5 20 -10 23 -6 4 -8 10 -5 15 3 4 -2 21 -10 36 -8 16 -15 34 -15
40 0 7 -7 14 -15 18 -12 4 -11 -3 6 -35z"/>
<path d="M978 1870 c-32 -37 -36 -48 -48 -128 -6 -45 -5 -105 6 -200 9 -90 10
-140 4 -146 -6 -6 -10 -15 -10 -20 0 -6 5 -4 10 4 8 13 10 12 10 -2 0 -10 -4
-18 -8 -18 -5 0 -10 -23 -11 -52 -1 -28 -3 -54 -6 -56 -2 -3 2 -20 10 -39 18
-44 19 -52 2 -29 -12 16 -14 12 -27 -33 -7 -28 -18 -47 -23 -44 -6 3 -7 1 -4
-5 12 -18 -5 -44 -37 -58 -31 -13 -31 -13 -5 -14 17 0 33 9 42 23 12 16 16 18
16 6 1 -24 -32 -49 -57 -44 -14 2 -22 -1 -22 -11 0 -8 4 -14 8 -14 5 0 9 -6 9
-14 0 -8 -6 -12 -15 -9 -12 5 -12 3 -1 -15 8 -12 21 -20 29 -18 58 16 82 18
74 5 -7 -12 -5 -12 9 0 9 7 14 18 10 24 -3 6 -1 7 5 3 29 -17 -1 -86 -36 -86
-7 0 -12 -4 -12 -10 0 -18 29 -11 50 12 18 19 22 20 30 8 37 -59 -35 -105
-371 -239 -151 -60 -302 -117 -335 -126 -134 -37 -274 -90 -274 -103 0 -18 37
-10 253 59 48 16 91 28 95 26 5 -1 30 8 58 19 27 12 101 43 164 69 63 25 124
50 135 55 73 32 123 51 131 48 13 -3 94 50 94 63 0 5 5 7 11 4 6 -4 21 3 33
14 30 28 33 20 35 -93 1 -49 4 -92 6 -96 2 -3 7 -29 10 -56 7 -64 16 -118 29
-179 2 -11 9 -31 15 -45 10 -25 10 -25 10 -2 1 13 -5 55 -13 95 -26 131 -39
255 -34 334 5 77 -15 188 -43 236 -5 10 -7 27 -4 38 9 27 -4 24 -14 -3 -6 -16
-9 -3 -9 47 -1 39 -2 81 -2 95 0 14 1 131 2 262 2 130 0 234 -4 232 -4 -3 -5
10 -2 28 2 18 5 61 7 95 3 43 9 69 22 83 10 11 15 20 10 20 -4 0 -2 7 5 15 23
28 5 15 -22 -15z m-24 -802 c-4 -13 -7 -38 -8 -57 -1 -40 -22 -57 -60 -47
l-28 7 33 22 c22 15 34 32 36 52 4 25 17 44 31 45 2 0 0 -10 -4 -22z"/>
<path d="M1126 1777 c-21 -23 -33 -43 -27 -45 6 -2 8 -9 5 -14 -4 -7 -2 -8 5
-4 6 4 9 12 6 17 -4 5 1 9 9 9 9 0 16 6 16 14 0 14 39 15 132 1 30 -5 48 -3
53 4 3 6 12 9 18 5 7 -3 1 4 -12 15 -26 24 -99 29 -119 9 -9 -9 -12 -9 -12 0
0 6 -8 16 -18 21 -15 8 -25 2 -56 -32z"/>
<path d="M1706 1799 c3 -5 0 -9 -7 -9 -7 0 -10 -2 -7 -5 3 -3 17 -1 32 4 19 8
26 7 26 -1 0 -6 3 -8 7 -5 3 4 12 2 20 -5 10 -8 17 -8 25 0 9 9 7 12 -8 12
-12 0 -24 3 -28 7 -11 11 -67 12 -60 2z"/>
<path d="M1808 1768 c-15 -15 -51 -20 -42 -7 3 5 -2 9 -10 9 -12 0 -13 -5 -7
-22 7 -20 16 -23 57 -23 27 0 54 -3 60 -7 17 -11 25 2 13 23 -8 15 -6 17 8 12
10 -3 23 -9 28 -13 6 -4 21 -10 35 -12 14 -3 34 -9 44 -13 17 -8 17 -6 -2 13
-12 12 -27 22 -32 22 -6 0 -19 5 -29 12 -14 9 -31 9 -64 1 -37 -8 -44 -7 -40
4 6 16 -2 17 -19 1z"/>
<path d="M1400 1702 c0 -4 9 -13 19 -19 14 -9 18 -20 15 -37 -5 -28 13 -46 22
-22 3 9 11 16 16 16 6 0 7 -7 4 -16 -3 -9 -9 -28 -12 -42 l-5 -27 15 25 c19
31 20 71 4 92 -14 17 -78 42 -78 30z"/>
<path d="M1640 1680 c-24 -24 -26 -59 -5 -86 12 -16 14 -16 15 -3 0 9 7 22 15
29 11 9 12 16 2 31 -9 15 -8 21 8 33 18 14 18 15 3 16 -10 0 -27 -9 -38 -20z"/>
<path d="M1248 1666 c-26 -7 -54 -19 -63 -26 -19 -16 -45 -63 -50 -93 -4 -21
-3 -20 15 3 11 14 20 28 20 33 0 4 9 7 21 7 11 0 17 -4 14 -10 -3 -5 -1 -10 4
-10 15 0 14 13 -1 29 -11 10 -9 15 7 27 19 14 20 13 25 -13 7 -39 51 -54 80
-28 15 13 19 26 15 42 -7 28 8 30 35 3 26 -26 49 -26 25 0 -9 10 -36 23 -59
29 -33 7 -36 9 -13 10 15 1 42 -6 60 -14 l32 -16 -24 21 c-27 23 -72 25 -143
6z"/>
<path d="M1705 1655 c-20 -17 -20 -17 0 -11 17 5 16 3 -5 -13 -38 -30 -18 -35
24 -6 44 30 56 31 49 6 -3 -11 4 -28 16 -40 25 -25 60 -16 76 17 12 27 21 28
35 2 6 -11 16 -20 22 -20 7 0 23 -11 38 -25 18 -17 29 -22 40 -15 10 6 11 10
3 10 -7 0 -27 15 -44 34 -38 43 -93 65 -173 72 -48 5 -65 2 -81 -11z"/>
<path d="M2165 1623 c4 -10 9 -49 11 -88 11 -170 34 -285 56 -285 6 0 7 7 4
16 -11 30 -35 198 -35 249 0 52 -20 125 -35 125 -4 0 -5 -8 -1 -17z"/>
<path d="M1669 1562 c9 -17 59 -65 94 -91 14 -11 17 -11 17 3 0 9 -6 16 -13
16 -16 0 -67 51 -67 67 0 6 -9 13 -20 16 -16 4 -18 2 -11 -11z"/>
<path d="M1398 1530 c-19 -22 -32 -43 -28 -45 10 -6 80 60 80 75 0 19 -16 10
-52 -30z"/>
<path d="M1790 1468 c0 -5 9 -12 20 -15 11 -3 20 -10 20 -15 0 -5 5 -6 10 -3
8 5 8 11 0 20 -14 17 -50 26 -50 13z"/>
<path d="M1680 1407 c0 -11 9 -21 20 -24 20 -5 50 -50 50 -73 0 -13 40 -53 47
-46 17 17 -61 140 -83 132 -8 -3 -18 3 -23 12 -10 16 -10 16 -11 -1z"/>
<path d="M1366 1372 c-14 -3 -16 -6 -6 -12 10 -6 7 -18 -14 -54 -15 -25 -22
-46 -16 -46 17 0 50 39 50 58 0 10 5 23 12 30 15 15 0 30 -26 24z"/>
<path d="M763 1341 c-9 -15 -9 -23 2 -37 9 -12 12 -31 8 -52 -4 -24 -2 -32 8
-30 7 2 14 -6 16 -17 3 -16 2 -17 -6 -5 -7 10 -11 11 -11 2 0 -7 16 -29 35
-50 19 -20 35 -32 35 -26 0 6 -9 19 -20 29 -11 10 -20 31 -20 47 0 15 -4 28
-10 28 -5 0 -10 7 -10 16 0 8 5 12 10 9 6 -4 10 5 10 19 0 14 -5 26 -11 26 -5
0 -7 5 -4 10 3 6 2 10 -4 10 -5 0 -11 9 -13 20 -3 20 -3 20 -15 1z"/>
<path d="M804 1348 c-3 -4 3 -24 12 -43 9 -20 18 -46 19 -58 4 -36 4 -37 20
-31 19 8 19 30 1 41 -20 11 -27 69 -10 83 7 7 18 9 24 5 5 -3 10 -2 10 3 0 12
-69 12 -76 0z"/>
<path d="M1612 1294 c-13 -9 -12 -12 6 -16 23 -6 102 10 102 21 0 11 -92 7
-108 -5z"/>
<path d="M1428 1293 c-32 -8 -19 -23 21 -23 46 0 73 9 65 21 -5 9 -55 10 -86
2z"/>
<path d="M2192 1243 c0 -10 -3 -33 -7 -52 -6 -25 -5 -32 4 -27 6 4 9 12 6 17
-4 5 -2 9 3 9 11 0 21 39 14 58 -6 18 -21 14 -20 -5z"/>
<path d="M1450 1216 c-12 -12 -13 -46 -1 -46 5 0 11 6 14 13 3 9 7 9 19 -1 18
-15 48 -6 48 15 0 8 -5 11 -12 8 -7 -4 -4 1 6 9 11 9 14 16 8 16 -7 0 -20 -8
-30 -18 -10 -10 -24 -16 -31 -14 -8 3 -7 8 5 16 15 11 15 13 1 13 -9 0 -21 -5
-27 -11z"/>
<path d="M1575 1221 c-3 -6 4 -15 15 -21 11 -6 20 -8 20 -4 0 3 6 1 14 -5 9
-8 16 -8 20 -2 7 10 -31 41 -51 41 -6 0 -14 -4 -18 -9z"/>
<path d="M1646 1215 c4 -8 12 -15 19 -15 7 0 18 -7 25 -15 10 -12 10 -15 -3
-15 -10 0 -13 -6 -10 -21 5 -16 11 -19 32 -14 16 3 21 2 13 -3 -7 -5 -10 -16
-6 -25 7 -18 24 -23 24 -7 0 6 -5 10 -11 10 -5 0 -7 5 -4 10 11 17 25 11 35
-14 5 -13 19 -34 31 -45 24 -22 45 -29 34 -11 -3 6 -1 10 5 10 6 0 8 5 5 10
-4 6 -11 7 -17 4 -7 -5 -9 -2 -6 8 4 8 -2 20 -13 27 -11 6 -17 17 -13 24 4 7
4 9 -1 5 -4 -4 -14 0 -22 10 -12 16 -13 16 -7 -2 6 -16 4 -17 -14 -7 -22 12
-48 50 -44 64 1 4 -1 6 -5 5 -5 -1 -18 3 -30 10 -19 11 -22 10 -17 -3z"/>
<path d="M2243 1170 c-26 -21 -46 -67 -38 -87 2 -8 10 -11 16 -8 6 4 8 13 5
20 -3 8 4 17 15 20 10 4 19 11 19 16 0 5 18 -2 40 -16 23 -14 42 -21 45 -15 3
6 3 10 -2 11 -4 1 3 5 17 9 25 8 25 8 2 9 -29 1 -78 26 -89 45 -7 12 -12 11
-30 -4z"/>
<path d="M1369 1153 c-10 -2 -20 -14 -23 -26 -5 -18 -8 -20 -16 -7 -8 13 -10
12 -10 -3 0 -13 6 -16 26 -13 30 6 44 16 23 16 -10 1 -8 5 5 15 22 16 19 23
-5 18z"/>
<path d="M1429 1153 c-1 -5 -1 -11 -1 -15 1 -3 -5 -12 -13 -18 -11 -9 -15 -9
-15 -1 0 6 -5 11 -12 11 -6 0 -8 -3 -5 -7 4 -4 -5 -20 -20 -36 l-28 -30 28 18
c15 9 27 14 27 10 0 -4 7 -2 15 5 8 7 15 9 15 4 0 -5 7 -1 15 10 8 11 21 16
30 13 9 -4 15 -1 15 8 0 8 -3 14 -7 14 -23 -4 -43 2 -38 11 3 6 4 10 1 10 -3
0 -7 -3 -7 -7z"/>
<path d="M1858 1062 c4 -34 16 -51 34 -52 6 0 -23 74 -33 85 -3 2 -3 -12 -1
-33z"/>
<path d="M2295 1082 c11 -38 -75 -192 -107 -192 -12 0 -10 35 4 67 16 40 19
61 9 67 -8 5 -32 -66 -36 -109 -1 -11 -9 -38 -19 -59 -12 -30 -14 -41 -4 -47
8 -5 12 -44 12 -126 0 -204 -15 -281 -69 -344 -13 -17 -29 -47 -34 -67 -22
-81 -51 -203 -51 -210 1 -13 41 82 50 117 26 105 47 166 58 163 7 -1 12 5 12
13 0 8 4 15 8 15 19 0 39 114 50 287 l7 102 50 -31 c28 -17 57 -32 65 -33 8
-1 25 -7 37 -13 12 -7 29 -12 37 -12 9 0 16 -4 16 -9 0 -5 10 -11 23 -14 18
-4 151 -57 222 -88 11 -5 29 -11 40 -13 58 -11 85 -19 85 -27 0 -5 10 -9 23
-9 12 0 62 -14 111 -30 104 -35 109 -35 104 -13 -3 17 -71 43 -288 109 -63 20
-166 58 -230 86 -63 27 -140 59 -170 70 -66 25 -135 71 -151 100 -7 14 -8 18
0 14 6 -4 22 1 36 10 31 20 33 8 3 -23 -12 -13 -17 -23 -11 -23 9 0 26 13 89
71 22 19 41 99 29 119 -4 6 -1 17 5 26 10 11 16 11 26 3 8 -6 21 -8 31 -4 10
5 30 9 45 9 34 2 48 14 16 14 -49 0 -114 22 -131 46 -5 6 -5 1 -2 -12z m-15
-160 c0 -10 -7 -27 -15 -38 -15 -18 -16 -18 -13 6 3 21 16 48 26 50 1 0 2 -8
2 -18z"/>
<path d="M1269 1067 c-13 -24 -20 -107 -9 -107 5 0 11 6 13 13 3 6 6 -9 7 -35
2 -27 3 -54 4 -60 1 -7 -8 -25 -22 -39 -13 -15 -20 -29 -15 -32 9 -6 36 19 41
38 2 6 11 9 20 7 14 -2 14 -1 3 7 -12 8 -12 12 -2 24 6 8 8 17 3 19 -5 1 -13
13 -16 26 -6 17 -3 22 11 22 15 0 16 2 3 10 -8 5 -11 10 -6 10 5 0 3 7 -4 15
-7 8 -15 13 -19 11 -4 -3 -5 11 -3 30 5 40 12 47 30 28 7 -8 8 -14 2 -14 -5 0
-10 -10 -10 -22 l1 -23 13 24 c18 32 10 67 -16 67 -11 0 -24 -9 -29 -19z"/>
<path d="M1610 1060 c-8 -6 -49 -10 -91 -10 -50 0 -82 -5 -95 -15 -10 -8 -30
-15 -44 -15 -27 -1 -64 -23 -54 -33 4 -3 17 1 30 10 17 10 35 13 59 9 26 -5
35 -4 33 6 -5 23 252 32 260 9 2 -6 25 -11 52 -11 48 0 78 -18 65 -39 -3 -7 0
-8 9 -5 21 8 20 13 -10 40 -15 14 -37 24 -55 24 -17 0 -43 7 -60 16 -17 8 -39
12 -51 8 -11 -3 -23 -1 -27 4 -4 7 -12 8 -21 2z"/>
<path d="M1015 1025 c4 -11 11 -37 15 -58 11 -58 19 -55 17 6 -1 30 -6 53 -11
50 -4 -3 -13 1 -18 8 -7 10 -8 9 -3 -6z"/>
<path d="M2126 1015 c-5 -16 -11 -41 -12 -55 -3 -25 -3 -25 12 3 8 15 14 40
12 55 l-3 27 -9 -30z"/>
<path d="M1855 974 c-20 -30 -10 -48 11 -20 13 18 19 46 10 46 -2 0 -11 -12
-21 -26z"/>
<path d="M1530 910 c-17 -41 -6 -50 14 -11 18 35 19 41 7 41 -5 0 -14 -14 -21
-30z"/>
<path d="M1575 923 c-21 -21 -37 -53 -27 -53 5 0 17 9 27 20 13 15 22 17 36
10 14 -8 17 -6 16 9 -2 25 -33 34 -52 14z"/>
<path d="M1640 925 c-7 -8 -11 -15 -9 -16 34 -7 46 -4 41 13 -5 22 -15 23 -32
3z"/>
<path d="M1060 928 c1 -2 7 -28 15 -58 8 -34 14 -45 14 -29 1 39 -10 89 -20
89 -5 0 -9 -1 -9 -2z"/>
<path d="M1859 923 c-1 -4 -1 -12 0 -17 1 -5 -5 -6 -14 -2 -9 3 -14 2 -10 -3
3 -5 19 -12 35 -16 36 -8 52 -34 45 -72 -4 -23 -4 -24 4 -8 5 11 10 25 10 32
1 13 -68 99 -70 86z"/>
<path d="M861 907 c0 -10 -5 -16 -10 -13 -5 4 -7 -3 -4 -13 3 -12 13 -19 24
-18 19 1 28 17 10 17 -5 0 -12 10 -14 23 -3 16 -5 17 -6 4z"/>
<path d="M2091 888 c-13 -26 -14 -26 -40 -11 l-26 17 23 -23 c13 -13 21 -29
18 -37 -3 -7 -1 -16 4 -19 6 -4 10 3 10 14 0 11 7 24 16 29 10 5 14 18 12 33
l-4 24 -13 -27z"/>
<path d="M1780 879 c0 -5 7 -9 16 -9 8 0 29 -13 46 -30 16 -16 35 -30 41 -30
8 0 7 3 -1 9 -8 4 -13 12 -12 16 1 4 -9 13 -22 20 -13 6 -22 16 -21 21 1 5
-10 10 -23 10 -13 1 -24 -2 -24 -7z"/>
<path d="M1103 823 c1 -17 10 -36 20 -42 22 -14 21 -9 -3 36 l-19 37 2 -31z"/>
<path d="M2043 804 c4 -4 -3 -20 -14 -36 -12 -16 -19 -31 -17 -33 7 -8 49 26
43 35 -3 5 -1 11 5 15 12 8 4 25 -12 25 -6 0 -8 -3 -5 -6z"/>
<path d="M1680 774 c0 -14 -3 -23 -7 -21 -5 3 -9 -11 -9 -30 -2 -40 -20 -65
-33 -45 -7 11 -9 10 -14 -2 -9 -23 32 -21 49 2 12 16 13 15 14 -5 0 -26 15
-38 26 -22 4 7 3 9 -3 6 -14 -9 -24 58 -16 106 3 20 3 37 -1 37 -3 0 -6 -12
-6 -26z"/>
<path d="M1253 775 c-8 -22 2 -29 24 -16 14 8 14 10 3 11 -13 0 -13 1 0 10 13
8 12 10 -3 10 -10 0 -20 -7 -24 -15z"/>
<path d="M1470 780 c0 -6 9 -20 19 -32 l20 -21 -8 29 c-7 27 -31 46 -31 24z"/>
<path d="M2113 774 c-41 -106 -252 -302 -380 -353 -42 -16 -69 -19 -153 -17
-85 3 -109 8 -151 30 -57 29 -59 30 -59 16 0 -6 26 -22 58 -37 52 -24 68 -27
177 -27 131 0 139 2 245 74 54 37 175 149 217 202 25 30 66 119 58 126 -2 3
-8 -4 -12 -14z"/>
<path d="M1150 752 c0 -13 11 -35 25 -50 18 -19 25 -22 25 -11 0 8 -11 30 -25
49 -22 30 -25 32 -25 12z"/>
<path d="M1840 758 c0 -6 -7 -20 -16 -30 -16 -16 -15 -18 2 -25 10 -4 19 -2
22 5 2 7 10 12 18 12 21 0 17 23 -6 38 -15 9 -20 9 -20 0z"/>
<path d="M1975 761 c5 -9 2 -18 -7 -25 -26 -19 -50 -64 -39 -71 6 -3 11 1 11
9 0 9 3 16 8 16 4 0 15 14 25 32 14 24 15 34 6 42 -9 8 -10 7 -4 -3z"/>
<path d="M1070 757 c0 -17 31 -67 42 -67 6 0 9 -3 5 -6 -13 -13 75 -122 179
-224 60 -58 103 -98 96 -89 -6 9 -8 20 -4 24 4 5 2 5 -4 2 -6 -3 -24 12 -40
33 -16 22 -36 40 -44 41 -11 0 -11 2 -2 6 7 3 19 -1 27 -7 8 -7 15 -8 15 -4 0
14 -33 31 -52 28 -11 -1 -15 3 -11 12 3 8 -1 14 -9 14 -7 0 -18 8 -23 19 -13
25 -86 118 -124 159 -16 18 -35 40 -40 50 -6 9 -11 13 -11 9z"/>
<path d="M1528 754 c-6 -5 7 -72 15 -80 3 -3 8 -1 12 5 3 6 2 11 -3 11 -5 0
-9 14 -10 31 -1 33 -5 43 -14 33z"/>
<path d="M1504 663 c-1 -50 0 -54 11 -33 11 20 6 64 -9 87 -1 1 -2 -23 -2 -54z"/>
<path d="M1325 688 c4 -10 11 -18 15 -18 5 0 12 -9 15 -20 10 -32 23 -23 22
14 -1 29 -4 33 -17 26 -11 -6 -21 -5 -29 3 -10 9 -11 8 -6 -5z"/>
<path d="M1786 674 c-3 -9 -2 -23 3 -31 6 -12 10 -9 19 16 9 25 8 31 -2 31 -8
0 -17 -7 -20 -16z"/>
<path d="M1393 668 c7 -20 -11 -60 -24 -52 -8 4 -9 3 -5 -4 12 -19 25 -14 32
13 3 14 10 25 15 25 5 0 6 7 3 15 -4 8 -11 15 -16 15 -6 0 -8 -6 -5 -12z"/>
<path d="M1607 643 c-4 -6 -3 -14 3 -18 6 -4 8 -10 5 -15 -3 -5 0 -12 6 -16 7
-4 9 -3 5 4 -3 5 -1 12 6 14 6 2 12 13 14 24 3 18 2 18 -11 1 -13 -18 -13 -18
-17 0 -2 12 -6 14 -11 6z"/>
<path d="M1202 488 c-17 -17 -14 -59 11 -169 16 -69 25 -93 33 -85 7 7 8 21 2
41 -5 17 -11 56 -14 88 -6 53 -5 57 15 57 16 0 23 -8 28 -30 6 -31 33 -43 33
-15 0 19 -26 48 -57 64 -13 6 -23 20 -23 31 0 24 -13 33 -28 18z"/>
<path d="M1817 413 c-12 -11 -8 -35 5 -27 8 5 9 2 5 -9 -3 -10 -2 -17 3 -17 5
0 8 -13 7 -30 -1 -16 -6 -30 -12 -30 -5 0 -4 -4 3 -8 13 -9 6 -42 -9 -42 -5 0
-9 -6 -9 -14 0 -8 -7 -22 -16 -31 -9 -9 -14 -19 -11 -22 4 -3 2 -15 -4 -27 -6
-13 2 -8 19 12 34 38 65 126 65 183 0 49 -26 83 -46 62z"/>
<path d="M1081 267 c-1 -10 6 -34 14 -53 8 -20 24 -76 36 -125 11 -49 25 -89
30 -89 12 0 12 0 -10 78 -29 100 -69 210 -70 189z"/>
<path d="M1500 215 c0 -4 8 -17 19 -30 13 -18 21 -21 30 -12 16 16 14 37 -4
31 -8 -4 -22 -1 -30 6 -8 7 -15 9 -15 5z"/>
<path d="M2119 188 c-1 -13 -3 -32 -5 -43 -12 -79 -13 -146 -2 -143 13 5 14
12 21 126 4 48 2 82 -4 82 -5 0 -10 -10 -10 -22z"/>
<path d="M1205 160 c-4 -6 -1 -18 7 -27 11 -14 11 -16 0 -9 -10 6 -13 3 -10
-9 1 -10 9 -20 16 -23 8 -2 12 9 12 37 0 39 -11 53 -25 31z"/>
<path d="M1710 115 c-12 -19 -20 -41 -17 -48 2 -6 10 1 18 18 7 17 19 34 26
38 15 9 17 27 4 27 -5 0 -19 -16 -31 -35z"/>
<path d="M1330 120 c0 -5 6 -10 13 -10 14 0 82 -68 89 -90 4 -12 7 -10 16 7
11 19 9 24 -10 34 -13 7 -39 25 -59 40 -40 31 -49 35 -49 19z"/>
<path d="M1083 59 c11 -33 24 -59 29 -59 6 0 8 6 5 14 -3 8 -11 32 -18 54 -6
23 -17 43 -23 45 -8 3 -5 -17 7 -54z"/>
<path d="M1790 84 c-7 -19 -9 -38 -6 -41 10 -11 38 7 33 21 -3 8 -1 16 5 18
13 5 3 38 -11 38 -5 0 -15 -16 -21 -36z"/>
<path d="M2047 57 c-19 -47 -21 -57 -9 -57 8 0 36 90 30 96 -2 1 -11 -16 -21
-39z"/>
</g>
</svg>
